# xmcd
#
# Track frame offsets: 
#        150
#        23813
#        49091
#        71452
#        92252
#        113678
#        140568
#        167060
#        185731
#        207661
#
# Disc length: 3088 seconds
#
# Revision: 0
# Processed by: cddbd v1.5.2PL0 Copyright (c) Steve Scherf et al.
# Submitted via: ExactAudioCopyFreeDBPlugin 1.0
#
DISCID=890c0e0a
DTITLE=Tran Thai Hoa - Tinh khuc tien chien
DYEAR=1900
DGENRE=
TTITLE0=Cung dan xua
TTITLE1=La thu
TTITLE2=La do muon chieu
TTITLE3=Bong chieu ta
TTITLE4=Suoi mo
TTITLE5=Truong Chi
TTITLE6=Goi gio cho may ngan bay
TTITLE7=Dung buoc giang ho
TTITLE8=Dem thu
TTITLE9=Da khuc
EXTD=
EXTT0=
EXTT1=
EXTT2=
EXTT3=
EXTT4=
EXTT5=
EXTT6=
EXTT7=
EXTT8=
EXTT9=
PLAYORDER=
